HIERARCHY
ROOT Hips
{
	OFFSET 0.000000 0.000000 0.000000 
	CHANNELS 6 Xposition Yposition Zposition Zrotation Yrotation Xrotation
	JOINT LeftUpLeg
	{
		OFFSET 1.363060 -1.794630 0.839290 
		CHANNELS 3 Zrotation Yrotation Xrotation
		JOINT LeftLeg
		{
			OFFSET 2.448110 -6.726130 0.000000 
			CHANNELS 3 Zrotation Yrotation Xrotation
			JOINT LeftFoot
			{
				OFFSET 2.562200 -7.039590 0.000000 
				CHANNELS 3 Zrotation Yrotation Xrotation
				JOINT LeftToeBase
				{
					OFFSET 0.157640 -0.433110 2.322550 
					CHANNELS 3 Zrotation Yrotation Xrotation
					End Site
					{
						OFFSET 0.000000 0.000000 0.000000 
					}
				}
			}
		}
	}
	JOINT RightUpLeg
	{
		OFFSET -1.305520 -1.794630 0.839290 
		CHANNELS 3 Zrotation Yrotation Xrotation
		JOINT RightLeg
		{
			OFFSET -2.542530 -6.985550 0.000000 
			CHANNELS 3 Zrotation Yrotation Xrotation
			JOINT RightFoot
			{
				OFFSET -2.568260 -7.056230 0.000000 
				CHANNELS 3 Zrotation Yrotation Xrotation
				JOINT RightToeBase
				{
					OFFSET -0.164730 -0.452590 2.363150 
					CHANNELS 3 Zrotation Yrotation Xrotation
					End Site
					{
						OFFSET 0.000000 0.000000 0.000000 
					}
				}
			}
		}
	}
	JOINT Spine
	{
		OFFSET 0.028270 2.035590 -0.193380 
		CHANNELS 3 Zrotation Yrotation Xrotation
		JOINT Spine1
		{
			OFFSET 0.056720 2.048850 -0.042750 
			CHANNELS 3 Zrotation Yrotation Xrotation
			JOINT Neck1
			{
				OFFSET -0.054170 1.746240 0.172020 
				CHANNELS 3 Zrotation Yrotation Xrotation
				JOINT Head
				{
					OFFSET 0.104070 1.761360 -0.123970 
					CHANNELS 3 Zrotation Yrotation Xrotation
					End Site
					{
						OFFSET 0.000000 0.000000 0.000000 
					}
				}
			}
			JOINT LeftArm
			{
				OFFSET 3.362410 1.200890 -0.311210 
				CHANNELS 3 Zrotation Yrotation Xrotation
				JOINT LeftForeArm
				{
					OFFSET 4.983000 -0.000000 -0.000000 
					CHANNELS 3 Zrotation Yrotation Xrotation
					JOINT LeftHand
					{
						OFFSET 3.483560 -0.000000 -0.000000 
						CHANNELS 3 Zrotation Yrotation Xrotation
						JOINT LeftHandIndex1
						{
							OFFSET 0.715260 -0.000000 -0.000000 
							CHANNELS 3 Zrotation Yrotation Xrotation
							End Site
							{
								OFFSET 0.000000 0.000000 0.000000 
							}
						}
					}
				}
			}
			JOINT RightArm
			{
				OFFSET -3.136600 1.374050 -0.404650 
				CHANNELS 3 Zrotation Yrotation Xrotation
				JOINT RightForeArm
				{
					OFFSET -5.241900 -0.000000 -0.000000 
					CHANNELS 3 Zrotation Yrotation Xrotation
					JOINT RightHand
					{
						OFFSET -3.444170 -0.000000 -0.000000 
						CHANNELS 3 Zrotation Yrotation Xrotation
						JOINT RightHandIndex1
						{
							OFFSET -0.622530 -0.000000 -0.000000 
							CHANNELS 3 Zrotation Yrotation Xrotation
							End Site
							{
								OFFSET 0.000000 0.000000 0.000000 
							}
						}
					}
				}
			}
		}
	}
}
MOTION
Frames: 6
Frame Time: 0.041667
-28.783216 17.466584 0.515174 36.051839 88.316233 31.331244 -15.559480 3.527297 15.324919 -1.823525 -0.364722 -0.341127 -0.854346 10.033302 -10.586656 0.509200 -4.574300 -12.698200 18.153168 -13.998986 19.476511 -0.511286 -2.161318 0.765124 -0.436474 0.743803 -14.246402 -0.139600 -2.407700 6.633700 0.558538 1.656713 -2.845956 -1.718591 0.576499 1.976651 4.745333 1.312738 8.139694 -1.128900 0.952100 10.819700 -92.230637 0.590754 39.823424 10.951164 -20.084664 -2.173116 -0.015959 0.687829 16.712134 -7.125000 0.000000 0.000000 89.146297 -4.907342 38.029874 -18.238198 32.556068 -4.708804 0.425875 -2.784286 4.780647 7.125000 0.000000 0.000000 
-28.778611 17.464947 0.513639 37.186612 88.155714 32.526881 -15.611175 3.909557 15.049799 -1.806701 -0.292551 -0.189182 -0.807025 9.668288 -10.441231 0.506700 -4.563000 -12.666200 17.891636 -14.112985 19.371608 -0.515515 -2.201129 0.890013 -0.443772 1.006442 -14.224078 -0.137700 -2.392100 6.590600 0.531549 1.707220 -2.848123 -1.742610 0.608695 2.014392 4.789114 1.255770 8.161522 -1.109900 0.933700 10.831900 -92.153260 0.622006 39.918442 10.998695 -20.154089 -2.189354 -0.038720 0.700067 16.634621 -7.125000 0.000000 0.000000 89.225902 -4.859289 37.948181 -18.167085 32.496175 -4.683972 0.421139 -2.786850 4.836357 7.125000 0.000000 0.000000 
-28.783114 17.464844 0.515993 35.943698 88.391363 31.275315 -15.388202 3.732254 15.024487 -1.805281 -0.261977 -0.067314 -0.805841 9.618700 -10.408070 0.465400 -4.375700 -12.136100 18.195553 -14.078864 19.314305 -0.508805 -2.229398 0.939113 -0.447122 0.874740 -14.381423 -0.133300 -2.353300 6.483200 0.538048 1.662988 -2.845105 -1.845849 0.579171 2.024720 4.834359 1.188783 8.205045 -1.098600 0.916300 10.904200 -92.029904 0.524061 40.174150 11.015214 -20.163301 -2.192718 -0.090548 0.714790 16.447216 -7.125000 0.000000 0.000000 89.309718 -4.749976 37.909437 -18.120318 32.461721 -4.665749 0.414678 -2.786802 4.818680 7.125000 0.000000 0.000000 
-28.783216 17.464537 0.518039 33.760037 88.492738 29.062372 -15.308830 3.455645 15.237162 -1.817425 -0.303444 -0.135964 -0.845440 9.919464 -10.529975 0.443400 -4.272300 -11.844100 18.450002 -14.016145 19.294353 -0.505139 -2.250798 0.973795 -0.447908 0.823178 -14.447317 -0.122600 -2.257700 6.218300 0.550676 1.607384 -2.835256 -1.899310 0.538757 2.060566 4.857348 1.250697 8.218100 -1.079600 0.948800 10.926100 -91.987233 0.420743 40.167344 10.965822 -20.088579 -2.175770 -0.058310 0.704117 16.397028 -7.125000 0.000000 0.000000 89.307522 -4.694868 38.091930 -18.134684 32.482267 -4.670138 0.408955 -2.787779 4.747024 7.125000 0.000000 0.000000 
-28.779839 17.462593 0.518449 33.544220 88.392499 28.857803 -15.475682 3.261886 15.427462 -1.833690 -0.362098 -0.297239 -0.878714 10.222982 -10.732491 0.456700 -4.335200 -12.021700 18.417841 -13.974889 19.301316 -0.508630 -2.247557 0.972994 -0.446727 0.892761 -14.380668 -0.118300 -2.217500 6.107200 0.573876 1.634386 -2.837732 -1.710917 0.545704 2.053600 4.867048 1.285935 8.232499 -1.044400 0.954000 10.919700 -92.116831 0.424947 40.169411 10.944106 -20.064873 -2.167911 -0.089734 0.704909 16.425315 -7.125000 0.000000 0.000000 89.155055 -4.740888 38.185971 -18.180605 32.502474 -4.686512 0.404925 -2.781575 4.704677 7.125000 0.000000 0.000000 
-28.777895 17.461365 0.518551 33.644596 88.391084 28.958116 -15.477808 3.256050 15.441501 -1.833680 -0.371164 -0.320163 -0.869420 10.176176 -10.797232 0.437800 -4.245500 -11.768500 18.449870 -13.922168 19.363441 -0.509543 -2.223754 0.910177 -0.444406 0.852437 -14.356125 -0.129500 -2.319500 6.389500 0.567310 1.666512 -2.835199 -1.726869 0.563357 2.059935 4.874530 1.226741 8.237005 -1.042200 0.928100 10.908800 -92.101174 0.393834 40.265348 10.927626 -20.039436 -2.161954 -0.068555 0.701145 16.444051 -7.125000 0.000000 0.000000 89.167956 -4.788827 38.130283 -18.244307 32.577729 -4.713452 0.405015 -2.782625 4.734866 7.125000 0.000000 0.000000 
